<svg xmlns="http://www.w3.org/2000/svg" version="1.1" xmlns:xlink="http://www.w3.org/1999/xlink" xmlns:svgjs="http://svgjs.com/svgjs" width="1920" height="1080" preserveAspectRatio="none" viewBox="0 0 1920 1080"><g mask="url(&quot;#SvgjsMask1021&quot;)" fill="none"><rect width="1920" height="1080" x="0" y="0" fill="rgba(24, 24, 27, 1)"></rect><path d="M0,794.687C147.992,806.196,288.163,720.96,402.481,626.273C508.87,538.153,551.268,403.144,618.451,282.437C692.266,149.813,823.939,34.216,816.379,-117.378C808.723,-270.9,685.12,-390.475,579.333,-501.995C477.385,-609.468,361.401,-705.02,219.289,-746.829C77.133,-788.651,-78.357,-790.608,-216.112,-736.011C-348.091,-683.703,-439.395,-567.86,-522.568,-452.808C-599.859,-345.893,-636.078,-222.62,-677.74,-97.444C-728.719,55.726,-862.882,216.611,-793.955,362.587C-724.84,508.96,-506.344,489.275,-364.166,566.653C-235.766,636.533,-145.744,783.353,0,794.687" fill="#131316"></path><path d="M1920 1945.039C2081.381 1938.732 2235.91 1867.029 2357.42 1760.6390000000001 2469.709 1662.3229999999999 2495.532 1506.267 2569.308 1376.529 2652.202 1230.756 2832.4719999999998 1117.963 2817.877 950.905 2803.355 784.6800000000001 2615.143 698.148 2499.531 577.8340000000001 2390.623 464.49699999999996 2309.4139999999998 311.64300000000003 2159.182 265.419 2008.419 219.03200000000004 1853.95 296.04600000000005 1700.35 331.93899999999996 1536.865 370.14200000000005 1341.679 356.746 1230.4 482.45799999999997 1119.036 608.2660000000001 1127.725 799.808 1137.733 967.527 1146.421 1113.123 1230.508 1234.799 1283.406 1370.723 1340.1950000000002 1516.644 1343.78 1690.8229999999999 1460.041 1795.71 1582.203 1905.921 1755.596 1951.464 1920 1945.039" fill="#1d1d20"></path></g><defs><mask id="SvgjsMask1021"><rect width="1920" height="1080" fill="#ffffff"></rect></mask></defs></svg>