<svg xmlns="http://www.w3.org/2000/svg" version="1.1" xmlns:xlink="http://www.w3.org/1999/xlink" xmlns:svgjs="http://svgjs.com/svgjs" width="1080" height="1920" preserveAspectRatio="none" viewBox="0 0 1080 1920"><g mask="url(&quot;#SvgjsMask1042&quot;)" fill="none"><rect width="1080" height="1920" x="0" y="0" fill="rgba(244, 244, 245, 1)"></rect><path d="M0,767.022C145.521,790.903,299.948,738.575,417.048,648.94C530.262,562.28,570.116,417.088,627.603,286.617C684.29,157.961,764.162,32.019,750.524,-107.909C736.645,-250.309,668.005,-394.079,552.967,-479.148C443.966,-559.753,288.288,-501.047,159.924,-544.65C22.876,-591.203,-76.898,-775.065,-217.541,-740.876C-356.403,-707.12,-375.124,-512.912,-455.817,-394.968C-525.506,-293.109,-625.295,-213.397,-659.546,-94.828C-696.809,34.171,-718.42,180.669,-656.518,299.822C-595.257,417.741,-445.74,448.072,-337.473,525.118C-222.375,607.026,-139.402,744.145,0,767.022" fill="#c1c1c6"></path><path d="M1080 2822.93C1245.452 2789.389 1313.874 2593.434 1442.592 2484.205 1549.548 2393.443 1710.149 2361.938 1771.755 2235.9139999999998 1833.7150000000001 2109.166 1800.574 1958.219 1766.664 1821.273 1735.219 1694.284 1659.681 1589.804 1585.143 1482.291 1501.5720000000001 1361.749 1441.701 1207.17 1304.658 1154.885 1165.867 1101.933 1016.405 1177.176 871.534 1210.029 716.424 1245.204 526.293 1229.9099999999999 426.765 1353.9679999999998 327.15999999999997 1478.122 374.485 1660.729 382.414 1819.702 389.009 1951.922 434.22 2071.316 468.91499999999996 2199.073 511.28700000000003 2355.101 495.64099999999996 2537.737 608.777 2653.237 728.0160000000001 2774.968 912.9970000000001 2856.785 1080 2822.93" fill="#ffffff"></path></g><defs><mask id="SvgjsMask1042"><rect width="1080" height="1920" fill="#ffffff"></rect></mask></defs></svg>