<svg xmlns="http://www.w3.org/2000/svg" version="1.1" xmlns:xlink="http://www.w3.org/1999/xlink" xmlns:svgjs="http://svgjs.com/svgjs" width="1920" height="1080" preserveAspectRatio="none" viewBox="0 0 1920 1080"><g mask="url(&quot;#SvgjsMask1077&quot;)" fill="none"><rect width="1920" height="1080" x="0" y="0" fill="rgba(244, 244, 245, 1)"></rect><path d="M0,605.947C113.314,599.741,206.416,529.037,309.522,481.625C431.581,425.498,586.281,413.488,661.139,301.932C737.825,187.652,726.613,34.397,700.272,-100.684C674.736,-231.639,615.055,-357.931,515.209,-446.431C421.187,-529.769,289.239,-539.173,168.074,-572.408C49.303,-604.986,-70.712,-677.738,-187.696,-639.234C-304.16,-600.902,-341.582,-457.031,-432.48,-374.746C-540.801,-276.688,-719.614,-247.554,-771.329,-110.9C-823.693,27.47,-779.113,195.855,-694.289,317.071C-613.613,432.36,-462.02,462.708,-332.104,516.763C-224.088,561.706,-116.818,612.344,0,605.947" fill="#c1c1c6"></path><path d="M1920 1592.711C2041.289 1586.031 2162.98 1679.492 2274.853 1632.162 2389.449 1583.68 2451.964 1459.7269999999999 2502.792 1346.152 2553.342 1233.1970000000001 2581.351 1109.934 2563.357 987.499 2545.3959999999997 865.284 2487.069 751.934 2402.262 662.1179999999999 2319.625 574.5989999999999 2204.879 534.922 2093.327 489.70399999999995 1969.623 439.55999999999995 1843.065 344.251 1715.567 383.76599999999996 1588.059 423.284 1537.362 573.326 1463.895 684.783 1399.7469999999998 782.102 1330.317 877.4590000000001 1314.068 992.88 1297.846 1108.106 1336.5259999999998 1219.296 1373.094 1329.763 1413.829 1452.818 1422.285 1616.5149999999999 1539.106 1672.682 1658.444 1730.059 1787.785 1599.993 1920 1592.711" fill="#ffffff"></path></g><defs><mask id="SvgjsMask1077"><rect width="1920" height="1080" fill="#ffffff"></rect></mask></defs></svg>